<svg
    xmlns="http://www.w3.org/2000/svg"
    viewBox="0 0 512 512"
    id="vector">
    <path
        id="path"
        d="M 256 0 L 23.5 310 L 47.5 328 L 76 290 L 76 512 L 436 512 L 436 290 L 464.5 328 L 488.5 310 L 256 0 Z M 321 482 L 191 482 L 191 383 C 191 347.159 220.159 318 256 318 C 291.841 318 321 347.159 321 383 L 321 482 Z M 406 482 L 351 482 L 351 383 C 351 330.617 308.383 288 256 288 C 203.617 288 161 330.617 161 383 L 161 482 L 106 482 L 106 250 L 256 50 L 406 250 L 406 482 Z"
        fill="#000000"/>
    <path
        id="path_1"
        d="M 326.58 200.783 L 305.42 179.518 L 279.809 205 L 232.191 205 L 206.58 179.518 L 185.42 200.783 L 204.733 220 L 185.42 239.217 L 206.58 260.482 L 232.191 235 L 279.809 235 L 305.42 260.482 L 326.58 239.217 L 307.267 220 Z"
        fill="#000000"/>
</svg>
