<svg
    xmlns="http://www.w3.org/2000/svg"
    viewBox="0 0 511 511"
    id="vector">
    <path
        id="path"
        d="M 181.178 71.178 C 172.41 53.45 165.498 39.455 180.751 16.565 C 184.015 11.658 182.671 5.045 177.786 1.781 C 172.943 -1.462 166.287 -0.16 163.002 4.746 C 140.901 37.855 152.634 61.578 162.063 80.629 C 170.874 98.464 177.252 111.349 163.002 132.746 C 159.717 137.653 161.061 144.266 165.946 147.53 C 167.759 148.746 169.829 149.322 171.877 149.322 C 175.312 149.322 178.682 147.658 180.73 144.565 C 201.829 112.949 190.394 89.781 181.178 71.178 Z"
        fill="#000000"/>
    <path
        id="path_1"
        d="M 266.17 71.178 C 257.381 53.45 250.469 39.455 265.722 16.565 C 268.986 11.658 267.642 5.045 262.757 1.781 C 257.914 -1.462 251.237 -0.16 247.973 4.746 C 225.893 37.877 237.626 61.599 247.034 80.65 C 255.845 98.485 262.223 111.37 247.973 132.746 C 244.709 137.653 246.053 144.266 250.938 147.53 C 252.751 148.746 254.799 149.322 256.847 149.322 C 260.282 149.322 263.652 147.658 265.722 144.565 C 286.821 112.949 275.386 89.781 266.17 71.178 Z"
        fill="#000000"/>
    <path
        id="path_2"
        d="M 351.141 71.178 C 342.352 53.45 335.44 39.455 350.693 16.565 C 353.957 11.658 352.613 5.045 347.728 1.781 C 342.885 -1.462 336.208 -0.16 332.944 4.746 C 310.864 37.877 322.597 61.599 332.005 80.65 C 340.816 98.485 347.194 111.37 332.944 132.746 C 329.68 137.653 331.024 144.266 335.909 147.53 C 337.722 148.746 339.77 149.322 341.818 149.322 C 345.274 149.322 348.645 147.658 350.693 144.565 C 371.792 112.949 360.357 89.781 351.141 71.178 Z"
        fill="#000000"/>
    <path
        id="path_3"
        d="M 437.328 170.655 L 74.661 170.655 C 45.242 170.655 21.328 194.591 21.328 223.988 L 21.328 415.988 C 21.328 445.385 45.243 469.321 74.661 469.321 L 437.328 469.321 C 466.747 469.321 490.661 445.385 490.661 415.988 L 490.661 223.988 C 490.661 194.591 466.746 170.655 437.328 170.655 Z M 469.328 415.989 C 469.328 433.632 454.971 447.989 437.328 447.989 L 74.661 447.989 C 57.018 447.989 42.661 433.632 42.661 415.989 L 42.661 223.989 C 42.661 206.346 57.018 191.989 74.661 191.989 L 437.328 191.989 C 454.971 191.989 469.328 206.346 469.328 223.989 L 469.328 415.989 Z"
        fill="#000000"/>
    <path
        id="path_4"
        d="M 95.994 213.322 C 90.106 213.322 85.327 218.101 85.327 223.989 L 85.327 415.989 C 85.327 421.877 90.106 426.656 95.994 426.656 C 101.882 426.656 106.661 421.877 106.661 415.989 L 106.661 223.989 C 106.661 218.101 101.882 213.322 95.994 213.322 Z"
        fill="#000000"/>
    <path
        id="path_5"
        d="M 159.994 213.322 C 154.106 213.322 149.327 218.101 149.327 223.989 L 149.327 415.989 C 149.327 421.877 154.106 426.656 159.994 426.656 C 165.882 426.656 170.661 421.877 170.661 415.989 L 170.661 223.989 C 170.661 218.101 165.882 213.322 159.994 213.322 Z"
        fill="#000000"/>
    <path
        id="path_6"
        d="M 223.994 213.322 C 218.106 213.322 213.327 218.101 213.327 223.989 L 213.327 415.989 C 213.327 421.877 218.106 426.656 223.994 426.656 C 229.882 426.656 234.661 421.877 234.661 415.989 L 234.661 223.989 C 234.661 218.101 229.882 213.322 223.994 213.322 Z"
        fill="#000000"/>
    <path
        id="path_7"
        d="M 287.994 213.322 C 282.106 213.322 277.327 218.101 277.327 223.989 L 277.327 415.989 C 277.327 421.877 282.106 426.656 287.994 426.656 C 293.882 426.656 298.661 421.877 298.661 415.989 L 298.661 223.989 C 298.661 218.101 293.882 213.322 287.994 213.322 Z"
        fill="#000000"/>
    <path
        id="path_8"
        d="M 351.994 213.322 C 346.106 213.322 341.327 218.101 341.327 223.989 L 341.327 415.989 C 341.327 421.877 346.106 426.656 351.994 426.656 C 357.882 426.656 362.661 421.877 362.661 415.989 L 362.661 223.989 C 362.661 218.101 357.882 213.322 351.994 213.322 Z"
        fill="#000000"/>
    <path
        id="path_9"
        d="M 415.994 213.322 C 410.106 213.322 405.327 218.101 405.327 223.989 L 405.327 415.989 C 405.327 421.877 410.106 426.656 415.994 426.656 C 421.882 426.656 426.661 421.877 426.661 415.989 L 426.661 223.989 C 426.661 218.101 421.882 213.322 415.994 213.322 Z"
        fill="#000000"/>
    <path
        id="path_10"
        d="M 117.328 447.989 C 111.44 447.989 106.661 452.768 106.661 458.656 L 106.661 501.323 C 106.661 507.211 111.44 511.99 117.328 511.99 C 123.216 511.99 127.995 507.211 127.995 501.323 L 127.995 458.656 C 127.994 452.767 123.216 447.989 117.328 447.989 Z"
        fill="#000000"/>
    <path
        id="path_11"
        d="M 394.661 447.989 C 388.773 447.989 383.994 452.768 383.994 458.656 L 383.994 501.323 C 383.994 507.211 388.773 511.99 394.661 511.99 C 400.549 511.99 405.328 507.211 405.328 501.323 L 405.328 458.656 C 405.328 452.767 400.549 447.989 394.661 447.989 Z"
        fill="#000000"/>
</svg>
