<svg
    xmlns="http://www.w3.org/2000/svg"
    viewBox="0 0 512 512"
    id="vector">
    <path
        id="path"
        d="M 475.089 154.708 L 269.98 154.708 L 269.98 139.575 L 274.346 139.575 C 276.996 139.572 279.54 138.517 281.414 136.643 C 283.288 134.769 284.343 132.225 284.346 129.575 L 284.346 110.438 C 284.343 107.788 283.288 105.244 281.414 103.37 C 279.54 101.496 276.996 100.441 274.346 100.438 L 159.861 100.438 C 157.211 100.441 154.667 101.496 152.793 103.37 C 150.919 105.244 149.864 107.788 149.861 110.438 L 149.861 127.685 L 145.5 127.685 C 139.986 127.685 135.5 132.479 135.5 138.373 L 135.5 154.708 L 129.738 154.708 C 127.223 146.23 119.77 140.591 112.719 140.152 L 115.361 111.527 C 115.695 107.761 114.777 103.989 112.75 100.798 C 110.722 97.608 107.697 95.174 104.146 93.877 L 104.146 84.023 L 126.997 84.023 C 129.067 84.024 131.08 83.345 132.726 82.09 C 134.372 80.836 135.561 79.074 136.108 77.078 C 136.655 75.082 136.53 72.96 135.754 71.042 L 121.3 35.4 C 120.598 33.654 119.388 32.157 117.827 31.106 C 116.266 30.054 114.425 29.495 112.543 29.5 L 81.319 29.5 C 79.437 29.495 77.596 30.054 76.035 31.106 C 74.474 32.157 73.264 33.654 72.562 35.4 L 58.112 71.041 C 57.335 72.96 57.211 75.081 57.758 77.077 C 58.305 79.074 59.493 80.836 61.139 82.09 C 62.785 83.345 64.799 84.024 66.869 84.023 L 92.142 84.023 L 92.142 93.876 C 88.585 95.174 85.556 97.613 83.528 100.81 C 81.5 104.007 80.586 107.786 80.927 111.557 L 83.576 140.257 C 76.835 141.141 69.96 146.638 67.566 154.712 L 36.911 154.712 C 22.072 154.708 10 166.359 10 180.68 L 10 226.754 C 10 226.786 10 226.818 10.005 226.854 C 10.01 226.89 10 226.918 10 226.954 L 10 476.5 C 10 478.091 10.633 479.618 11.757 480.743 C 12.882 481.867 14.409 482.5 16 482.5 L 212.212 482.5 C 213.803 482.5 215.33 481.867 216.455 480.743 C 217.579 479.618 218.212 478.091 218.212 476.5 L 218.212 424.335 L 490 424.335 L 490 476.5 C 490 478.091 490.633 479.618 491.757 480.743 C 492.882 481.867 494.409 482.5 496 482.5 C 497.591 482.5 499.118 481.867 500.243 480.743 C 501.367 479.618 502 478.091 502 476.5 L 502 180.68 C 502 166.359 489.928 154.708 475.089 154.708 Z M 83.036 41.5 L 110.826 41.5 L 123.2 72.023 L 70.663 72.023 Z M 257.98 154.708 L 250.3 154.708 L 250.3 139.575 L 257.982 139.575 Z M 161.861 112.438 L 272.346 112.438 L 272.346 127.575 L 161.861 127.575 Z M 147.5 139.685 L 159.866 139.685 C 160.246 139.684 160.624 139.647 160.997 139.575 L 238.3 139.575 L 238.3 154.708 L 147.5 154.708 Z M 92.883 110.485 C 92.817 109.761 92.903 109.032 93.137 108.344 C 93.371 107.656 93.747 107.025 94.241 106.492 C 94.905 105.769 95.756 105.245 96.7 104.978 C 97.644 104.71 98.645 104.71 99.589 104.978 C 100.533 105.245 101.384 105.769 102.048 106.492 C 102.539 107.021 102.914 107.647 103.149 108.33 C 103.383 109.012 103.472 109.737 103.409 110.456 L 100.671 140.126 L 95.614 140.126 Z M 85.469 152.126 L 111.838 152.126 C 112.716 152.217 113.565 152.495 114.326 152.94 C 115.088 153.386 115.746 153.989 116.256 154.71 L 81.056 154.71 C 81.564 153.99 82.221 153.387 82.981 152.941 C 83.741 152.495 84.588 152.217 85.464 152.124 Z M 36.911 166.708 L 71.286 166.708 C 72.198 166.932 73.151 166.932 74.063 166.708 L 123.235 166.708 C 124.147 166.932 125.099 166.932 126.011 166.708 L 144.123 166.708 C 144.577 166.779 145.036 166.817 145.495 166.821 L 243.526 166.821 C 244.038 166.894 244.558 166.894 245.07 166.821 L 259.98 166.821 C 260.44 166.817 260.899 166.779 261.353 166.708 L 475.089 166.708 C 483.311 166.708 490 172.976 490 180.68 L 490 220.946 L 22 220.946 L 22 180.68 C 22 172.976 28.689 166.708 36.911 166.708 Z M 206.211 342.433 L 22 342.433 L 22 232.946 L 206.212 232.946 Z M 22 470.5 L 22 354.433 L 206.212 354.433 L 206.212 416.633 C 205.882 417.742 205.882 418.924 206.212 420.033 L 206.212 470.5 Z M 218.212 412.335 L 218.212 232.946 L 490 232.946 L 490 412.335 Z"
        fill="#000000"/>
    <path
        id="path_1"
        d="M 241.285 192.473 L 270.715 192.473 C 272.306 192.473 273.833 191.84 274.958 190.716 C 276.082 189.591 276.715 188.064 276.715 186.473 C 276.715 184.882 276.082 183.355 274.958 182.23 C 273.833 181.106 272.306 180.473 270.715 180.473 L 241.285 180.473 C 239.694 180.473 238.167 181.106 237.042 182.23 C 235.918 183.355 235.285 184.882 235.285 186.473 C 235.285 188.064 235.918 189.591 237.042 190.716 C 238.167 191.84 239.694 192.473 241.285 192.473 Z"
        fill="#000000"/>
    <path
        id="path_2"
        d="M 179.647 402.054 C 178.056 402.054 176.529 402.687 175.404 403.811 C 174.28 404.936 173.647 406.463 173.647 408.054 L 173.647 418.084 C 173.647 419.675 174.28 421.202 175.404 422.327 C 176.529 423.451 178.056 424.084 179.647 424.084 C 181.238 424.084 182.765 423.451 183.89 422.327 C 185.014 421.202 185.647 419.675 185.647 418.084 L 185.647 408.054 C 185.647 406.463 185.014 404.936 183.89 403.811 C 182.765 402.687 181.238 402.054 179.647 402.054 Z"
        fill="#000000"/>
    <path
        id="path_3"
        d="M 179.647 292.909 C 181.238 292.909 182.765 292.276 183.89 291.152 C 185.014 290.027 185.647 288.5 185.647 286.909 L 185.647 276.879 C 185.647 275.288 185.014 273.761 183.89 272.636 C 182.765 271.512 181.238 270.879 179.647 270.879 C 178.056 270.879 176.529 271.512 175.404 272.636 C 174.28 273.761 173.647 275.288 173.647 276.879 L 173.647 286.909 C 173.647 288.5 174.28 290.027 175.404 291.152 C 176.529 292.276 178.056 292.909 179.647 292.909 Z"
        fill="#000000"/>
</svg>
