<svg
    xmlns="http://www.w3.org/2000/svg"
    viewBox="0 0 512 512"
    id="vector">
    <path
        id="path"
        d="M 155.089 218.331 C 178.85 222.802 209.932 225.375 243.162 225.652 L 243.162 357.6 L 222.293 357.6 C 220.702 357.6 219.175 358.233 218.05 359.357 C 216.926 360.482 216.293 362.009 216.293 363.6 C 216.293 365.191 216.926 366.718 218.05 367.843 C 219.175 368.967 220.702 369.6 222.293 369.6 L 276.032 369.6 C 277.623 369.6 279.15 368.967 280.275 367.843 C 281.399 366.718 282.032 365.191 282.032 363.6 C 282.032 362.009 281.399 360.482 280.275 359.357 C 279.15 358.233 277.623 357.6 276.032 357.6 L 255.162 357.6 L 255.162 225.652 C 288.394 225.375 319.475 222.802 343.236 218.331 C 372.844 212.76 386.636 205.331 386.636 194.942 C 386.636 184.553 372.846 177.125 343.236 171.554 C 318.05 166.815 284.641 164.205 249.162 164.205 C 213.683 164.205 180.274 166.815 155.089 171.554 C 125.481 177.125 111.689 184.554 111.689 194.942 C 111.689 205.33 125.481 212.76 155.089 218.331 Z M 160.875 182.701 C 184.91 178.512 216.265 176.201 249.162 176.201 C 282.059 176.201 313.415 178.508 337.45 182.701 C 364.065 187.339 372.901 192.801 374.481 194.942 C 372.901 197.085 364.065 202.542 337.45 207.184 C 313.414 211.373 282.06 213.684 249.162 213.684 C 216.264 213.684 184.91 211.377 160.875 207.184 C 134.26 202.545 125.424 197.084 123.844 194.942 C 125.424 192.8 134.26 187.339 160.875 182.7 Z"
        fill="#000000"/>
    <path
        id="path_1"
        d="M 16 369.6 C 17.591 369.6 19.118 368.967 20.243 367.843 C 21.367 366.718 22 365.191 22 363.6 L 22 277.815 L 155.838 277.815 L 155.838 363.6 C 155.838 365.191 156.471 366.718 157.595 367.843 C 158.72 368.967 160.247 369.6 161.838 369.6 C 163.429 369.6 164.956 368.967 166.081 367.843 C 167.205 366.718 167.838 365.191 167.838 363.6 L 167.838 268.825 C 167.872 262.316 165.32 256.052 160.748 251.419 C 156.176 246.786 149.947 244.152 143.438 244.099 L 22 244.099 L 22 144 C 22 142.409 21.367 140.882 20.243 139.757 C 19.118 138.633 17.591 138 16 138 C 14.409 138 12.882 138.633 11.757 139.757 C 10.633 140.882 10 142.409 10 144 L 10 363.6 C 10 365.191 10.633 366.718 11.757 367.843 C 12.882 368.967 14.409 369.6 16 369.6 Z M 155.473 265.815 L 22 265.815 L 22 256.1 L 143.433 256.1 C 146.239 256.13 148.955 257.106 151.139 258.868 C 153.323 260.631 154.85 263.079 155.473 265.815 Z"
        fill="#000000"/>
    <path
        id="path_2"
        d="M 496 142.4 C 494.409 142.4 492.882 143.033 491.757 144.157 C 490.633 145.282 490 146.809 490 148.4 L 490 248.5 L 368.567 248.5 C 362.057 248.55 355.826 251.183 351.252 255.816 C 346.679 260.45 344.127 266.715 344.162 273.225 L 344.162 368 C 344.162 369.591 344.795 371.118 345.919 372.243 C 347.044 373.367 348.571 374 350.162 374 C 351.753 374 353.28 373.367 354.405 372.243 C 355.529 371.118 356.162 369.591 356.162 368 L 356.162 282.215 L 490 282.215 L 490 368 C 490 369.591 490.633 371.118 491.757 372.243 C 492.882 373.367 494.409 374 496 374 C 497.591 374 499.118 373.367 500.243 372.243 C 501.367 371.118 502 369.591 502 368 L 502 148.4 C 502 146.809 501.367 145.282 500.243 144.157 C 499.118 143.033 497.591 142.4 496 142.4 Z M 356.527 270.215 C 357.149 267.478 358.676 265.03 360.86 263.267 C 363.045 261.505 365.761 260.529 368.567 260.499 L 490 260.499 L 490 270.215 Z"
        fill="#000000"/>
</svg>
