<svg
    xmlns="http://www.w3.org/2000/svg"
    viewBox="0 0 512 512"
    id="vector">
    <path
        id="path"
        d="M 431.835 88.277 C 427.335 112.547 421.155 145.797 423.835 156.507 C 428.095 173.547 428.185 197.747 424.075 221.247 C 420.019 244.54 438.934 262.616 385.035 311.007 C 373.681 356.767 352.315 382.594 352.315 400.387 C 352.315 443.648 343.179 507.8 300.015 504.207 C 273.726 515.125 238.507 515.127 212.185 504.227 C 169.198 507.678 160.085 443.491 160.085 400.387 C 160.085 382.613 138.697 356.738 127.365 311.007 C 73.422 262.577 92.383 244.549 88.325 221.247 C 84.215 197.747 84.305 173.547 88.565 156.507 C 91.245 145.797 85.065 112.547 80.565 88.277 C 71.345 38.637 67.815 16.207 80.785 4.917 C 86.325 0.097 93.745 -1.263 101.145 1.207 C 111.335 4.607 125.745 15.907 161.915 75.087 C 176.355 98.707 189.855 122.817 198.115 137.897 C 234.319 125.164 278.359 125.262 314.285 137.897 C 322.545 122.817 336.045 98.707 350.485 75.087 C 386.655 15.907 401.065 4.607 411.255 1.207 C 418.655 -1.253 426.075 0.087 431.615 4.917 C 444.585 16.207 441.055 38.637 431.835 88.277 Z"
        fill="#a2d0ff"/>
    <path
        id="path_1"
        d="M 392.315 248.387 C 392.315 336.846 352.315 376.12 352.315 400.387 C 352.315 440.117 344.028 504.387 304.315 504.387 C 286.338 504.387 268.586 494.935 256.205 482.027 C 243.619 495.054 226.005 504.387 208.085 504.387 C 168.367 504.387 160.085 440.1 160.085 400.387 C 160.085 376.161 120.085 336.798 120.085 248.387 C 120.085 186.827 154.875 157.467 184.065 143.687 C 227.238 123.281 285.332 123.364 328.345 143.687 C 357.525 157.477 392.315 186.827 392.315 248.387 Z"
        fill="#999999"/>
    <path
        id="path_2"
        d="M 431.835 88.277 C 415.537 176.18 427.095 141.052 427.095 187.117 C 427.095 198.047 426.085 209.727 424.075 221.247 C 419.889 245.282 439.926 263.248 381.115 314.477 C 369.669 324.43 351.571 314.106 354.995 298.897 C 358.575 282.977 360.315 266.457 360.315 248.387 C 360.315 212.417 344.955 186.927 314.675 172.627 C 306.431 168.744 303.076 158.721 307.395 150.607 C 312.475 141.117 330.585 107.627 350.485 75.087 C 386.655 15.907 401.065 4.607 411.255 1.207 C 418.655 -1.253 426.075 0.087 431.615 4.917 C 444.585 16.207 441.055 38.637 431.835 88.277 Z"
        fill="#999999"/>
    <path
        id="path_3"
        d="M 197.725 172.627 C 167.445 186.927 152.085 212.417 152.085 248.387 C 152.085 266.457 153.825 282.977 157.405 298.897 C 160.792 313.94 142.922 324.596 131.285 314.477 C 72.488 263.26 92.504 245.243 88.325 221.247 C 84.215 197.747 84.305 173.547 88.565 156.507 C 91.245 145.797 85.065 112.547 80.565 88.277 C 71.345 38.637 67.815 16.207 80.785 4.917 C 86.529 -0.071 94.002 -1.174 101.145 1.207 C 111.335 4.607 125.745 15.907 161.915 75.087 C 181.805 107.617 199.925 141.117 205.005 150.607 C 209.316 158.647 206.007 168.726 197.725 172.627 Z"
        fill="#999999"/>
    <path
        id="path_4"
        d="M 147.825 317.217 C 142.347 319.476 135.907 318.496 131.285 314.477 C 72.488 263.26 92.504 245.243 88.325 221.247 C 84.215 197.747 84.305 173.547 88.565 156.507 C 91.245 145.797 85.065 112.547 80.565 88.277 C 71.576 39.878 66.727 13.754 83.155 3.137 C 116.215 17.637 150.335 86.527 136.085 136.387 C 124.595 176.607 150.245 270.477 147.825 317.217 Z"
        fill="#f2a661"/>
    <path
        id="path_5"
        d="M 364.575 317.217 C 370.053 319.476 376.493 318.496 381.115 314.477 C 439.912 263.26 419.896 245.243 424.075 221.247 C 428.185 197.747 428.095 173.547 423.835 156.507 C 421.155 145.797 427.335 112.547 431.835 88.277 C 440.824 39.878 445.673 13.754 429.245 3.137 C 396.185 17.637 362.065 86.527 376.315 136.387 C 387.805 176.607 362.155 270.477 364.575 317.217 Z"
        fill="#f2a661"/>
    <path
        id="path_6"
        d="M 328.085 376.387 C 304.085 368.387 312.085 336.387 296.085 336.387 C 280.085 336.387 320.085 400.387 256.085 400.387 C 192.085 400.387 232.085 336.387 216.085 336.387 C 200.085 336.387 208.085 368.387 184.085 376.387 C 170.905 380.777 152.905 363.457 139.355 346.947 C 149.293 370.854 160.085 387.897 160.085 400.387 C 160.085 443.128 168.9 507.702 212.185 504.227 C 238.063 514.943 273.272 515.288 299.985 504.227 C 343.242 507.699 352.085 442.832 352.085 400.387 C 352.085 387.896 362.865 370.881 372.815 346.947 C 359.265 363.457 341.265 380.777 328.085 376.387 Z"
        fill="#f2a661"/>
    <path
        id="path_7"
        d="M 304.085 400.387 C 304.085 415.864 285.147 456.387 256.085 456.387 C 227.407 456.387 208.085 416.259 208.085 400.387 C 208.085 357.787 304.085 357.654 304.085 400.387 Z"
        fill="#818182"/>
    <path
        id="path_8"
        d="M 192.085 272.387 M 176.085 272.387 C 176.085 268.145 177.772 264.073 180.771 261.073 C 183.771 258.074 187.843 256.387 192.085 256.387 C 196.327 256.387 200.399 258.074 203.399 261.073 C 206.398 264.073 208.085 268.145 208.085 272.387 C 208.085 276.629 206.398 280.701 203.399 283.701 C 200.399 286.7 196.327 288.387 192.085 288.387 C 187.843 288.387 183.771 286.7 180.771 283.701 C 177.772 280.701 176.085 276.629 176.085 272.387"
        fill="#000000"/>
    <path
        id="path_9"
        d="M 431.612 4.913 C 426.074 0.091 418.652 -1.257 411.257 1.207 C 401.068 4.602 386.653 15.902 350.481 75.084 C 336.042 98.708 322.546 122.819 314.287 137.898 C 277.839 125.088 233.845 125.339 198.114 137.898 C 189.855 122.82 176.359 98.708 161.92 75.084 C 125.749 15.902 111.333 4.602 101.146 1.208 C 93.749 -1.258 86.327 0.092 80.789 4.913 C 67.815 16.207 71.345 38.633 80.563 88.281 C 85.07 112.552 91.243 145.793 88.564 156.51 C 84.307 173.546 84.218 197.749 88.325 221.248 C 92.397 244.592 73.411 262.566 127.379 311.017 C 138.732 356.788 160.087 382.621 160.087 400.388 C 160.087 443.034 168.852 507.616 212.149 504.208 C 238.513 515.127 273.676 515.137 300.062 504.192 C 343.452 507.764 352.317 442.989 352.317 400.387 C 352.317 382.644 373.683 356.744 385.025 311.016 C 438.972 262.584 420.015 244.551 424.078 221.251 C 428.185 197.748 428.097 173.545 423.84 156.507 C 421.161 145.793 427.334 112.552 431.841 88.281 C 441.056 38.634 444.586 16.208 431.612 4.913 Z M 119.607 164.268 C 125.617 140.226 112.156 89.013 106.2 48.875 C 126.528 76.058 152.891 122.014 169.305 151.917 C 143.923 168.452 124.9 194.566 120.878 232.91 C 121.07 227.961 120.984 222.271 119.845 215.742 C 115.871 192.996 117.117 174.237 119.607 164.268 Z M 265.284 415.002 C 260.682 422.06 257.013 424.125 256.085 424.373 C 255.156 424.125 251.487 422.06 246.886 415.002 C 244.045 410.644 242.066 406.222 240.99 403.179 C 249.003 399.46 263.159 399.455 271.181 403.179 C 270.104 406.222 268.125 410.643 265.284 415.002 Z M 320.314 400.387 C 320.314 417.412 318.379 435.632 315.139 449.126 C 310.834 467.05 305.556 472.033 304.314 472.387 C 292.235 472.387 277.971 461.425 273.313 451.511 C 290.297 441.545 304.084 414.612 304.084 400.387 C 304.084 357.791 208.084 357.649 208.084 400.387 C 208.084 413.886 221.212 441.287 239.034 451.621 C 234.348 461.437 220.221 472.385 208.02 472.385 C 206.842 472.032 201.564 467.05 197.259 449.125 C 194.019 435.631 192.084 417.412 192.084 400.386 C 192.084 361.636 152.084 334.181 152.084 248.386 C 152.084 207.205 172.333 185.185 195.534 173.467 C 196.523 173.166 197.497 172.769 198.442 172.263 C 213.712 164.088 238.129 160.386 256.313 160.386 C 293.698 160.386 313.45 172.428 316.86 173.466 C 340.063 185.183 360.313 207.203 360.313 248.386 C 360.314 334.196 320.314 361.601 320.314 400.387 Z M 392.792 164.265 C 395.282 174.236 396.528 192.995 392.553 215.746 C 391.414 222.272 391.329 227.961 391.521 232.91 C 387.499 194.565 368.476 168.452 343.094 151.917 C 359.508 122.014 385.871 76.058 406.199 48.875 C 400.296 88.653 386.794 140.278 392.792 164.265 Z"
        fill="#000000"/>
    <path
        id="path_10"
        d="M 320.314 272.387 M 304.314 272.387 C 304.314 268.145 306.001 264.073 309 261.073 C 312 258.074 316.072 256.387 320.314 256.387 C 324.556 256.387 328.628 258.074 331.628 261.073 C 334.627 264.073 336.314 268.145 336.314 272.387 C 336.314 276.629 334.627 280.701 331.628 283.701 C 328.628 286.7 324.556 288.387 320.314 288.387 C 316.072 288.387 312 286.7 309 283.701 C 306.001 280.701 304.314 276.629 304.314 272.387"
        fill="#000000"/>
    <path
        id="path_11"
        d="M 212.085 252.387 M 200.085 252.387 C 200.085 249.206 201.35 246.151 203.6 243.902 C 205.849 241.652 208.904 240.387 212.085 240.387 C 215.266 240.387 218.321 241.652 220.57 243.902 C 222.82 246.151 224.085 249.206 224.085 252.387 C 224.085 255.568 222.82 258.623 220.57 260.872 C 218.321 263.122 215.266 264.387 212.085 264.387 C 208.904 264.387 205.849 263.122 203.6 260.872 C 201.35 258.623 200.085 255.568 200.085 252.387"
        fill="#f2a661"/>
    <path
        id="path_12"
        d="M 300.085 252.387 M 288.085 252.387 C 288.085 249.206 289.35 246.151 291.6 243.902 C 293.849 241.652 296.904 240.387 300.085 240.387 C 303.266 240.387 306.321 241.652 308.57 243.902 C 310.82 246.151 312.085 249.206 312.085 252.387 C 312.085 255.568 310.82 258.623 308.57 260.872 C 306.321 263.122 303.266 264.387 300.085 264.387 C 296.904 264.387 293.849 263.122 291.6 260.872 C 289.35 258.623 288.085 255.568 288.085 252.387"
        fill="#f2a661"/>
</svg>
