<svg
    xmlns="http://www.w3.org/2000/svg"
    viewBox="0 0 140 140"
    id="vector">
    <path
        id="path"
        d="M 138.091 140.591 L 2.5 140.591 C 1.119 140.591 0 139.472 0 138.091 L 0 2.5 C 0 1.119 1.119 0 2.5 0 L 138.091 0 C 139.472 0 140.591 1.119 140.591 2.5 L 140.591 138.091 C 140.591 139.472 139.472 140.591 138.091 140.591 Z M 105.118 135.591 L 135.591 135.591 L 135.591 105.118 L 107.325 133.384 C 107.321 133.388 107.317 133.393 107.312 133.397 C 107.308 133.401 107.303 133.406 107.299 133.41 L 105.118 135.591 Z M 66.202 135.591 L 98.048 135.591 L 102.01 131.629 L 86.087 115.706 L 66.202 135.591 Z M 29.869 135.591 L 59.131 135.591 L 102.593 92.129 L 87.962 77.498 L 41.813 123.647 L 41.813 123.647 L 29.869 135.591 Z M 5 135.591 L 22.798 135.591 L 36.51 121.879 L 21.148 106.517 L 5 122.665 L 5 135.591 Z M 89.622 112.17 L 105.545 128.093 L 135.591 98.047 L 135.591 66.202 L 107.896 93.897 L 107.896 93.897 L 89.622 112.17 Z M 24.684 102.981 L 40.045 118.343 L 116.718 41.67 L 101.356 26.308 L 71.297 56.368 C 71.294 56.37 71.292 56.372 71.29 56.374 L 24.684 102.981 Z M 5 82.009 L 5 115.593 L 19.354 101.238 C 19.363 101.23 19.371 101.221 19.379 101.213 C 19.387 101.204 19.396 101.196 19.404 101.188 L 65.986 54.605 L 49.545 38.164 L 5 82.009 Z M 91.497 73.962 L 106.128 88.593 L 135.518 59.204 C 135.542 59.18 135.567 59.156 135.591 59.133 L 135.591 29.868 L 91.497 73.962 Z M 5 41.208 L 5 74.993 L 24.798 55.506 L 7.833 38.54 L 5 41.208 Z M 11.474 35.11 L 28.362 51.998 L 75.942 5.166 L 43.265 5.166 L 11.474 35.11 Z M 53.108 34.656 L 69.522 51.07 L 115.593 5 L 83.238 5 L 53.108 34.656 Z M 104.891 22.773 L 120.253 38.135 L 135.591 22.797 L 135.591 5 L 122.664 5 L 104.891 22.773 Z M 5 5 L 5 34.34 L 5.935 33.46 C 5.988 33.396 6.043 33.335 6.103 33.275 C 6.199 33.179 6.301 33.092 6.408 33.015 L 36.148 5 L 5 5 Z"
        fill="#000002"/>
</svg>
