<svg
    xmlns="http://www.w3.org/2000/svg"
    viewBox="0 0 512 512"
    id="vector">
    <path
        id="path"
        d="M 38.468 474.037 L 473.532 474.037 C 480.423 474.029 487.036 471.286 491.908 466.413 C 496.781 461.541 499.524 454.928 499.532 448.037 L 499.532 291.257 C 499.524 284.366 496.781 277.753 491.908 272.881 C 487.036 268.008 480.423 265.265 473.532 265.257 L 38.468 265.257 C 31.577 265.265 24.964 268.008 20.092 272.881 C 15.219 277.753 12.476 284.366 12.468 291.257 L 12.468 448.037 C 12.476 454.928 15.219 461.541 20.092 466.413 C 24.964 471.286 31.577 474.029 38.468 474.037 Z M 24.468 448.037 L 24.468 323.021 L 85.68 323.021 L 85.68 462.037 L 38.468 462.037 C 34.758 462.033 31.197 460.555 28.573 457.932 C 25.95 455.308 24.472 451.747 24.468 448.037 Z M 159.368 323.021 L 159.368 462.037 L 97.68 462.037 L 97.68 323.021 Z M 487.532 397.529 L 352.632 397.529 L 352.632 346.021 L 487.532 346.021 Z M 340.632 462.037 L 171.368 462.037 L 171.368 277.257 L 340.632 277.257 Z M 473.532 462.037 L 352.632 462.037 L 352.632 409.529 L 487.532 409.529 L 487.532 448.037 C 487.528 451.747 486.05 455.308 483.427 457.932 C 480.803 460.555 477.242 462.033 473.532 462.037 Z M 487.532 291.257 L 487.532 334.021 L 352.632 334.021 L 352.632 277.257 L 473.532 277.257 C 477.242 277.261 480.803 278.738 483.427 281.362 C 486.051 283.986 487.528 287.547 487.532 291.257 Z M 38.468 277.257 L 159.368 277.257 L 159.368 311.021 L 24.468 311.021 L 24.468 291.257 C 24.472 287.547 25.949 283.986 28.573 281.362 C 31.197 278.738 34.758 277.261 38.468 277.257 Z"
        fill="#000000"/>
    <path
        id="path_1"
        d="M 331.382 454.421 L 331.382 338.113 L 180.618 338.113 L 180.618 454.421 Z M 192.618 350.113 L 319.382 350.113 L 319.382 442.421 L 192.618 442.421 Z"
        fill="#000000"/>
    <path
        id="path_2"
        d="M 195.12 316.474 L 316.88 316.474 C 318.471 316.474 319.998 315.841 321.123 314.717 C 322.247 313.592 322.88 312.065 322.88 310.474 C 322.88 308.883 322.247 307.356 321.123 306.231 C 319.998 305.107 318.471 304.474 316.88 304.474 L 195.12 304.474 C 193.529 304.474 192.002 305.107 190.877 306.231 C 189.753 307.356 189.12 308.883 189.12 310.474 C 189.12 312.065 189.753 313.592 190.877 314.717 C 192.002 315.841 193.529 316.474 195.12 316.474 Z"
        fill="#000000"/>
    <path
        id="path_3"
        d="M 88.75 298.666 L 95.513 298.666 C 97.104 298.666 98.631 298.033 99.756 296.909 C 100.88 295.784 101.513 294.257 101.513 292.666 C 101.513 291.075 100.88 289.548 99.756 288.423 C 98.631 287.299 97.104 286.666 95.513 286.666 L 88.75 286.666 C 87.159 286.666 85.632 287.299 84.507 288.423 C 83.383 289.548 82.75 291.075 82.75 292.666 C 82.75 294.257 83.383 295.784 84.507 296.909 C 85.632 298.033 87.159 298.666 88.75 298.666 Z"
        fill="#000000"/>
    <path
        id="path_4"
        d="M 411.137 298.7 L 425.5 298.7 C 427.091 298.7 428.618 298.067 429.743 296.943 C 430.867 295.818 431.5 294.291 431.5 292.7 C 431.5 291.109 430.867 289.582 429.743 288.457 C 428.618 287.333 427.091 286.7 425.5 286.7 L 411.137 286.7 C 409.546 286.7 408.019 287.333 406.894 288.457 C 405.77 289.582 405.137 291.109 405.137 292.7 C 405.137 294.291 405.77 295.818 406.894 296.943 C 408.019 298.067 409.546 298.7 411.137 298.7 Z"
        fill="#000000"/>
    <path
        id="path_5"
        d="M 411.137 367.926 L 425.5 367.926 C 427.091 367.926 428.618 367.293 429.743 366.169 C 430.867 365.044 431.5 363.517 431.5 361.926 C 431.5 360.335 430.867 358.808 429.743 357.683 C 428.618 356.559 427.091 355.926 425.5 355.926 L 411.137 355.926 C 409.546 355.926 408.019 356.559 406.894 357.683 C 405.77 358.808 405.137 360.335 405.137 361.926 C 405.137 363.517 405.77 365.044 406.894 366.169 C 408.019 367.293 409.546 367.926 411.137 367.926 Z"
        fill="#000000"/>
    <path
        id="path_6"
        d="M 425.5 418.792 L 411.137 418.792 C 409.546 418.792 408.019 419.425 406.894 420.549 C 405.77 421.674 405.137 423.201 405.137 424.792 C 405.137 426.383 405.77 427.91 406.894 429.035 C 408.019 430.159 409.546 430.792 411.137 430.792 L 425.5 430.792 C 427.091 430.792 428.618 430.159 429.743 429.035 C 430.867 427.91 431.5 426.383 431.5 424.792 C 431.5 423.201 430.867 421.674 429.743 420.549 C 428.618 419.425 427.091 418.792 425.5 418.792 Z"
        fill="#000000"/>
    <path
        id="path_7"
        d="M 38.468 195.538 L 171.187 195.538 C 178.078 195.53 184.691 192.787 189.563 187.914 C 194.436 183.042 197.179 176.429 197.187 169.538 L 197.187 63.963 C 197.179 57.072 194.435 50.459 189.563 45.587 C 184.691 40.715 178.078 37.971 171.187 37.963 L 38.468 37.963 C 31.577 37.971 24.964 40.714 20.092 45.587 C 15.219 50.459 12.476 57.072 12.468 63.963 L 12.468 169.538 C 12.476 176.429 15.219 183.042 20.092 187.914 C 24.964 192.787 31.577 195.53 38.468 195.538 Z M 185.187 63.963 L 185.187 169.538 C 185.183 173.248 183.705 176.809 181.082 179.433 C 178.458 182.056 174.897 183.534 171.187 183.538 L 110.827 183.538 L 110.827 49.963 L 171.187 49.963 C 174.897 49.967 178.458 51.445 181.082 54.068 C 183.705 56.692 185.183 60.253 185.187 63.963 Z M 24.468 63.963 C 24.472 60.253 25.95 56.692 28.573 54.068 C 31.197 51.445 34.758 49.967 38.468 49.963 L 98.827 49.963 L 98.827 183.538 L 38.468 183.538 C 34.758 183.534 31.197 182.057 28.573 179.433 C 25.949 176.809 24.472 173.248 24.468 169.538 Z"
        fill="#000000"/>
    <path
        id="path_8"
        d="M 80.916 128.034 C 82.507 128.034 84.034 127.401 85.159 126.277 C 86.283 125.152 86.916 123.625 86.916 122.034 L 86.916 111.467 C 86.916 109.876 86.283 108.349 85.159 107.224 C 84.034 106.1 82.507 105.467 80.916 105.467 C 79.325 105.467 77.798 106.1 76.673 107.224 C 75.549 108.349 74.916 109.876 74.916 111.467 L 74.916 122.034 C 74.916 123.625 75.549 125.152 76.673 126.277 C 77.798 127.401 79.325 128.034 80.916 128.034 Z"
        fill="#000000"/>
    <path
        id="path_9"
        d="M 126.838 128.034 C 128.429 128.034 129.956 127.401 131.081 126.277 C 132.205 125.152 132.838 123.625 132.838 122.034 L 132.838 111.467 C 132.838 109.876 132.205 108.349 131.081 107.224 C 129.956 106.1 128.429 105.467 126.838 105.467 C 125.247 105.467 123.72 106.1 122.595 107.224 C 121.471 108.349 120.838 109.876 120.838 111.467 L 120.838 122.034 C 120.838 123.625 121.471 125.152 122.595 126.277 C 123.72 127.401 125.247 128.034 126.838 128.034 Z"
        fill="#000000"/>
    <path
        id="path_10"
        d="M 332.8 37.963 C 325.909 37.971 319.296 40.714 314.424 45.587 C 309.551 50.459 306.808 57.072 306.8 63.963 L 306.8 169.538 C 306.808 176.429 309.551 183.042 314.424 187.914 C 319.296 192.787 325.909 195.53 332.8 195.538 L 465.514 195.538 C 472.405 195.53 479.018 192.787 483.89 187.914 C 488.763 183.042 491.506 176.429 491.514 169.538 L 491.514 63.963 C 491.506 57.072 488.763 50.459 483.89 45.587 C 479.018 40.714 472.405 37.971 465.514 37.963 Z M 318.8 169.538 L 318.8 63.963 C 318.804 60.253 320.282 56.692 322.905 54.068 C 325.529 51.445 329.09 49.967 332.8 49.963 L 393.159 49.963 L 393.159 183.538 L 332.8 183.538 C 329.09 183.534 325.529 182.057 322.905 179.433 C 320.281 176.809 318.804 173.248 318.8 169.538 Z M 479.514 63.963 L 479.514 169.538 C 479.51 173.248 478.032 176.809 475.409 179.433 C 472.785 182.056 469.224 183.534 465.514 183.538 L 405.155 183.538 L 405.155 49.963 L 465.514 49.963 C 469.224 49.967 472.785 51.445 475.409 54.068 C 478.032 56.692 479.51 60.253 479.514 63.963 Z"
        fill="#000000"/>
    <path
        id="path_11"
        d="M 375.022 105.467 C 373.431 105.467 371.904 106.1 370.779 107.224 C 369.655 108.349 369.022 109.876 369.022 111.467 L 369.022 122.034 C 369.022 123.625 369.655 125.152 370.779 126.277 C 371.904 127.401 373.431 128.034 375.022 128.034 C 376.613 128.034 378.14 127.401 379.265 126.277 C 380.389 125.152 381.022 123.625 381.022 122.034 L 381.022 111.467 C 381.022 109.876 380.389 108.349 379.265 107.224 C 378.14 106.1 376.613 105.467 375.022 105.467 Z"
        fill="#000000"/>
    <path
        id="path_12"
        d="M 420.944 128.034 C 422.535 128.034 424.062 127.401 425.187 126.277 C 426.311 125.152 426.944 123.625 426.944 122.034 L 426.944 111.467 C 426.944 109.876 426.311 108.349 425.187 107.224 C 424.062 106.1 422.535 105.467 420.944 105.467 C 419.353 105.467 417.826 106.1 416.701 107.224 C 415.577 108.349 414.944 109.876 414.944 111.467 L 414.944 122.034 C 414.944 123.625 415.577 125.152 416.701 126.277 C 417.826 127.401 419.353 128.034 420.944 128.034 Z"
        fill="#000000"/>
    <path
        id="path_13"
        d="M 227.8 37.963 L 227.8 115.827 L 204.869 156.993 L 204.818 157.085 C 204.006 158.606 203.746 160.362 204.082 162.053 C 204.419 163.744 205.332 165.266 206.665 166.36 C 207.997 167.454 209.669 168.052 211.393 168.052 L 293.309 168.052 C 295.032 168.052 296.703 167.454 298.036 166.361 C 299.368 165.268 300.281 163.746 300.618 162.056 C 300.955 160.366 300.697 158.611 299.886 157.09 L 276.9 115.827 L 276.9 37.963 Z M 239.8 49.963 L 264.9 49.963 L 264.9 111.008 L 239.8 111.008 Z M 219.132 156.052 L 237.538 123.008 L 267.17 123.008 L 285.576 156.052 Z"
        fill="#000000"/>
</svg>
