<svg
    xmlns="http://www.w3.org/2000/svg"
    viewBox="0 0 512 512"
    id="vector">
    <path
        id="path"
        d="M 128 119.465 L 452.266 119.465 C 485.258 119.465 512 92.723 512 59.735 C 512 26.743 485.258 0.001 452.266 0.001 L 59.735 0.001 C 26.758 0.04 0.04 26.759 0.001 59.735 L 0.001 332.801 C 0.04 365.774 26.759 392.496 59.735 392.535 L 162.133 392.535 C 166.844 392.539 170.664 396.355 170.668 401.066 L 170.668 452.265 C 156.535 452.281 145.082 463.734 145.066 477.867 L 145.066 486.398 C 145.082 500.531 156.535 511.984 170.668 512 L 221.867 512 C 236 511.984 247.449 500.531 247.465 486.398 L 247.465 477.867 C 247.449 463.734 236 452.281 221.867 452.265 L 221.867 401.066 C 221.828 368.093 195.105 341.371 162.133 341.332 L 59.735 341.332 C 55.024 341.328 51.204 337.512 51.2 332.801 L 51.2 59.735 C 51.204 55.024 55.024 51.204 59.735 51.2 L 452.266 51.2 C 454.567 51.196 456.77 52.141 458.352 53.813 C 459.938 55.372 460.821 57.508 460.801 59.735 C 460.797 64.446 456.977 68.262 452.266 68.266 L 128 68.266 C 95.023 68.305 68.305 95.024 68.266 128 C 68.305 160.973 95.028 187.695 128 187.734 L 452.266 187.734 C 454.567 187.73 456.77 188.675 458.352 190.347 C 459.938 191.906 460.821 194.042 460.801 196.265 C 460.797 200.976 456.977 204.796 452.266 204.8 L 128 204.8 C 95.023 204.835 68.305 231.558 68.266 264.534 C 68.305 297.507 95.028 324.229 128 324.264 L 452.266 324.264 C 454.567 324.26 456.77 325.205 458.352 326.877 C 459.938 328.436 460.821 330.572 460.801 332.799 C 460.797 337.51 456.977 341.326 452.266 341.33 L 358.399 341.33 C 325.426 341.369 298.704 368.092 298.669 401.064 L 298.669 452.263 C 284.536 452.279 273.083 463.732 273.067 477.865 L 273.067 486.396 C 273.083 500.529 284.536 511.982 298.669 511.998 L 349.868 511.998 C 364.001 511.982 375.45 500.529 375.466 486.396 L 375.466 477.865 C 375.45 463.732 364.001 452.279 349.868 452.263 L 349.868 401.064 C 349.872 396.353 353.688 392.537 358.399 392.533 L 452.266 392.533 C 485.243 392.494 511.965 365.771 512 332.799 C 511.961 299.822 485.242 273.104 452.266 273.065 L 128 273.065 C 125.699 273.069 123.496 272.124 121.918 270.452 C 120.332 268.893 119.445 266.757 119.465 264.534 C 119.473 259.819 123.289 256.003 128 255.999 L 452.266 255.999 C 485.243 255.964 511.965 229.241 512 196.265 C 511.961 163.292 485.242 136.57 452.266 136.535 L 128 136.535 C 125.699 136.539 123.496 135.594 121.918 133.922 C 120.332 132.359 119.445 130.223 119.465 128 C 119.473 123.289 123.289 119.473 128 119.465 Z M 230.398 477.867 L 230.398 486.398 C 230.394 491.109 226.578 494.929 221.867 494.933 L 170.668 494.933 C 165.957 494.929 162.137 491.109 162.133 486.398 L 162.133 477.867 C 162.137 473.156 165.957 469.336 170.668 469.332 L 221.867 469.332 C 226.578 469.336 230.394 473.156 230.398 477.867 Z M 358.398 477.867 L 358.398 486.398 C 358.394 491.109 354.578 494.929 349.867 494.933 L 298.668 494.933 C 293.957 494.929 290.137 491.109 290.133 486.398 L 290.133 477.867 C 290.137 473.156 293.957 469.336 298.668 469.332 L 349.867 469.332 C 354.578 469.336 358.394 473.156 358.398 477.867 Z M 109.859 145.992 C 114.621 150.887 121.172 153.637 128 153.601 L 452.266 153.601 C 475.821 153.628 494.907 172.714 494.934 196.265 C 494.895 219.816 475.817 238.894 452.266 238.933 L 128 238.933 C 113.867 238.949 102.414 250.402 102.398 264.535 C 102.464 278.644 113.89 290.066 128 290.133 L 452.266 290.133 C 475.821 290.16 494.907 309.246 494.934 332.801 C 494.895 356.348 475.817 375.43 452.266 375.465 L 358.399 375.465 C 344.27 375.481 332.817 386.934 332.801 401.067 L 332.801 452.266 L 315.735 452.266 L 315.735 401.067 C 315.762 377.516 334.848 358.43 358.399 358.399 L 452.266 358.399 C 466.399 358.383 477.852 346.934 477.868 332.801 C 477.802 318.688 466.38 307.266 452.266 307.199 L 128 307.199 C 104.449 307.172 85.359 288.086 85.332 264.535 C 85.371 240.984 104.453 221.902 128 221.867 L 452.266 221.867 C 466.399 221.851 477.852 210.398 477.868 196.265 C 477.802 182.156 466.38 170.734 452.266 170.667 L 128 170.667 C 104.449 170.64 85.359 151.55 85.332 127.999 C 85.371 104.452 104.453 85.37 128 85.331 L 452.266 85.331 C 466.399 85.315 477.852 73.866 477.868 59.733 C 477.802 45.62 466.38 34.198 452.266 34.131 L 59.735 34.131 C 45.602 34.147 34.149 45.6 34.133 59.733 L 34.133 332.799 C 34.149 346.932 45.602 358.381 59.735 358.397 L 162.133 358.397 C 185.688 358.428 204.774 377.514 204.801 401.065 L 204.801 452.264 L 187.735 452.264 L 187.735 401.065 C 187.719 386.932 176.266 375.479 162.133 375.463 L 59.735 375.463 C 36.18 375.436 17.094 356.35 17.067 332.799 L 17.067 59.733 C 17.094 36.178 36.18 17.092 59.735 17.065 L 452.266 17.065 C 475.832 17.065 494.934 36.167 494.934 59.733 C 494.934 83.296 475.832 102.397 452.266 102.397 L 128 102.397 C 113.867 102.413 102.414 113.866 102.398 127.999 C 102.347 134.761 105.039 141.249 109.859 145.991 Z M 109.859 145.992"
        fill="#000000"/>
</svg>
