<svg
    xmlns="http://www.w3.org/2000/svg"
    viewBox="0 0 512 512"
    id="vector">
    <path
        id="path"
        d="M 382.933 73.6 L 441.6 73.6 L 441.6 176 L 382.933 176 Z"
        fill="#f05540"/>
    <path
        id="path_1"
        d="M 360.533 21.333 L 464 21.333 L 464 76.8 L 360.533 76.8 Z"
        fill="#f3705a"/>
    <path
        id="path_2"
        d="M 44.8 276.267 L 44.8 512 L 462.933 512 L 462.933 276.267 C 380.8 194.134 334.933 148.267 253.866 67.2 L 253.866 67.2 C 172.8 149.333 126.933 195.2 44.8 276.267 Z"
        fill="#ffd15c"/>
    <path
        id="path_3"
        d="M 464 276.267 C 381.867 194.134 336 148.267 254.933 67.2 C 213.333 107.733 181.333 139.733 149.333 171.733 C 117.333 203.733 85.333 235.733 44.8 276.266 L 44.8 324.266 C 126.933 242.133 172.8 196.266 253.867 115.199 C 336 197.332 381.867 243.199 462.934 324.266 L 462.934 330.666 L 462.934 330.666 L 462.934 276.266 L 464 276.266 Z"
        fill="#f7b64c"/>
    <path
        id="path_4"
        d="M 216.533 512 L 90.667 512 L 90.667 388.267 C 90.667 353.067 119.467 325.334 153.6 325.334 L 153.6 325.334 C 188.8 325.334 216.533 354.134 216.533 388.267 L 216.533 512 Z"
        fill="#415a6b"/>
    <path
        id="path_5"
        d="M 253.867 325.333 L 418.134 325.333 L 418.134 469.333 L 253.867 469.333 Z"
        fill="#344a5e"/>
    <path
        id="path_6"
        d="M 270.933 342.4 L 327.466 342.4 L 327.466 452.267 L 270.933 452.267 Z"
        fill="#8ad7f8"/>
    <path
        id="path_7"
        d="M 344.533 342.4 L 401.066 342.4 L 401.066 452.267 L 344.533 452.267 Z"
        fill="#8ad7f8"/>
    <path
        id="path_8"
        d="M 502.4 232.533 L 279.467 9.6 C 266.667 -3.2 244.267 -3.2 231.467 9.6 L 9.6 232.533 C -3.2 245.333 -3.2 267.733 9.6 280.533 C 22.4 293.333 44.8 293.333 57.6 280.533 L 256 82.133 L 454.4 280.533 C 467.2 293.333 489.6 293.333 502.4 280.533 C 515.2 266.667 515.2 245.333 502.4 232.533 Z"
        fill="#f3705a"/>
</svg>
