<svg
    xmlns="http://www.w3.org/2000/svg"
    viewBox="0 0 1024 1024"
    id="vector">
    <g
        id="group"
        transform="translate(256 256)">
        <path
            id="path"
            d="M 464 176 C 437.531 176 416 197.531 416 224 L 416 264 L 416 320 C 416 328.837 408.837 336 400 336 L 112 336 C 103.163 336 96 328.837 96 320 L 96 264 L 96 224 C 96 197.531 74.469 176 48 176 C 21.531 176 0 197.531 0 224 C 0 244.852 13.387 262.589 32 269.2 L 32 280 L 32 416 C 32 433.645 46.351 448 64 448 L 448 448 C 465.649 448 480 433.645 480 416 L 480 280 L 480 269.2 C 498.613 262.59 512 244.852 512 224 C 512 197.531 490.469 176 464 176 Z"
            fill="#3f556b"/>
        <path
            id="path_1"
            d="M 416 264 L 416 80 C 416 57.945 396.617 40 372.797 40 L 139.195 40 C 115.375 40 96 57.945 96 80 L 96 264 L 416 264 Z"
            fill="#3cb44a"/>
        <path
            id="path_2"
            d="M 208 120 M 192 120 C 192 115.758 193.687 111.686 196.686 108.686 C 199.686 105.687 203.758 104 208 104 C 212.242 104 216.314 105.687 219.314 108.686 C 222.313 111.686 224 115.758 224 120 C 224 124.242 222.313 128.314 219.314 131.314 C 216.314 134.313 212.242 136 208 136 C 203.758 136 199.686 134.313 196.686 131.314 C 193.687 128.314 192 124.242 192 120"
            fill="#0e9247"/>
        <path
            id="path_3"
            d="M 304 120 M 288 120 C 288 115.758 289.687 111.686 292.686 108.686 C 295.686 105.687 299.758 104 304 104 C 308.242 104 312.314 105.687 315.314 108.686 C 318.313 111.686 320 115.758 320 120 C 320 124.242 318.313 128.314 315.314 131.314 C 312.314 134.313 308.242 136 304 136 C 299.758 136 295.686 134.313 292.686 131.314 C 289.687 128.314 288 124.242 288 120"
            fill="#0e9247"/>
        <path
            id="path_4"
            d="M 208 192 M 192 192 C 192 187.758 193.687 183.686 196.686 180.686 C 199.686 177.687 203.758 176 208 176 C 212.242 176 216.314 177.687 219.314 180.686 C 222.313 183.686 224 187.758 224 192 C 224 196.242 222.313 200.314 219.314 203.314 C 216.314 206.313 212.242 208 208 208 C 203.758 208 199.686 206.313 196.686 203.314 C 193.687 200.314 192 196.242 192 192"
            fill="#0e9247"/>
        <path
            id="path_5"
            d="M 304 192 M 288 192 C 288 187.758 289.687 183.686 292.686 180.686 C 295.686 177.687 299.758 176 304 176 C 308.242 176 312.314 177.687 315.314 180.686 C 318.313 183.686 320 187.758 320 192 C 320 196.242 318.313 200.314 315.314 203.314 C 312.314 206.313 308.242 208 304 208 C 299.758 208 295.686 206.313 292.686 203.314 C 289.687 200.314 288 196.242 288 192"
            fill="#0e9247"/>
        <path
            id="path_6"
            d="M 416 264 L 96 264 L 96 320 C 96 328.837 103.163 336 112 336 L 400 336 C 408.837 336 416 328.837 416 320 L 416 264 Z"
            fill="#0e9247"/>
        <path
            id="path_7"
            d="M 400 336 L 112 336 C 103.163 336 96 328.837 96 320 L 96 448 L 112 448 L 112 368 C 112 359.163 119.163 352 128 352 L 384 352 C 392.837 352 400 359.163 400 368 L 400 448 L 416 448 L 416 320 C 416 328.837 408.837 336 400 336 Z"
            fill="#35495c"/>
        <path
            id="path_8"
            d="M 95.798 228 C 93.76 252.634 73.159 272 48 272 C 42.37 272 37.017 270.931 32 269.146 L 32 288 L 48 288 C 74.51 288 96 258.51 96 232 C 96 230.65 95.907 229.322 95.798 228 Z"
            fill="#35495c"/>
        <path
            id="path_9"
            d="M 416.202 228 C 418.24 252.634 438.84 272 464 272 C 469.63 272 474.983 270.931 480 269.146 L 480 288 L 464 288 C 437.49 288 416 258.51 416 232 C 416 230.65 416.093 229.322 416.202 228 Z"
            fill="#35495c"/>
        <path
            id="path_10"
            d="M 416 264 L 416 264 C 407.163 264 400 271.163 400 280 L 400 312 C 400 316.418 396.418 320 392 320 L 96 320 C 96 328.837 103.163 336 112 336 L 400 336 C 408.837 336 416 328.836 416 319.999 L 416 264 Z"
            fill="#04803d"/>
        <path
            id="path_11"
            d="M 356.422 464.845 C 358.39 468.78 363.6 472 368 472 L 392 472 C 396.4 472 400 468.4 400 464 L 400 448 L 348 448 L 356.422 464.845 Z"
            fill="#35495c"/>
        <path
            id="path_12"
            d="M 112 448 L 112 464 C 112 468.4 115.6 472 120 472 L 144 472 C 148.4 472 153.609 468.78 155.578 464.845 L 164 448 L 112 448 Z"
            fill="#35495c"/>
    </g>
</svg>
