<svg
    xmlns="http://www.w3.org/2000/svg"
    viewBox="0 0 512 512"
    id="vector">
    <path
        id="path"
        d="M 336.709 74.843 C 326.387 70.899 314.829 76.062 310.884 86.38 C 306.939 96.696 312.104 108.259 322.42 112.204 C 393.115 139.239 442 207.384 442 286 C 442 388.561 358.561 472 256 472 C 153.439 472 70 388.561 70 286 C 70 207.341 118.908 139.234 189.573 112.207 C 199.89 108.261 205.054 96.698 201.109 86.382 C 197.162 76.065 185.597 70.902 175.284 74.846 C 89.185 107.777 30 190.692 30 286 C 30 410.922 131.09 512 256 512 C 380.922 512 482 410.91 482 286 C 482 190.65 422.778 107.759 336.709 74.843 Z"
        fill="#000000"/>
    <path
        id="path_1"
        d="M 256 0 C 244.954 0 236 8.954 236 20 L 236 215.851 C 236 226.897 244.954 235.851 256 235.851 C 267.046 235.851 276 226.896 276 215.851 L 276 20 C 276 8.954 267.046 0 256 0 Z"
        fill="#000000"/>
</svg>
