<svg
    xmlns="http://www.w3.org/2000/svg"
    viewBox="0 0 512 512"
    id="vector">
    <path
        id="path"
        d="M 218.417 209.314 C 212.966 213.17 208.295 218.025 204.652 223.62 C 203.955 224.681 203.612 225.937 203.674 227.205 C 203.735 228.473 204.197 229.689 204.994 230.678 C 205.79 231.667 206.88 232.378 208.106 232.708 C 209.332 233.038 210.631 232.971 211.816 232.517 C 213.002 232.062 214.013 231.242 214.703 230.177 C 217.522 225.845 221.137 222.086 225.356 219.1 C 226.642 218.176 227.511 216.779 227.772 215.216 C 228.033 213.654 227.665 212.05 226.75 210.758 C 225.834 209.466 224.442 208.588 222.882 208.316 C 221.321 208.045 219.715 208.403 218.417 209.31 Z"
        fill="#000000"/>
    <path
        id="path_1"
        d="M 109.75 466.605 L 65.77 466.605 L 65.77 191.744 C 65.77 191.644 65.784 191.552 65.784 191.454 C 65.784 144.001 102.392 105.395 147.389 105.395 C 190.646 105.395 226.132 141.081 228.811 186 C 215.958 187.528 204.102 193.717 195.5 203.388 C 186.899 213.059 182.135 225.557 182.117 238.5 L 182.117 247.875 C 182.117 249.466 182.75 250.993 183.874 252.118 C 184.999 253.242 186.526 253.875 188.117 253.875 L 214.817 253.875 C 217.469 263.475 226.045 270.566 236.089 270.566 C 246.133 270.566 254.708 263.479 257.359 253.875 L 281.868 253.875 C 283.459 253.875 284.986 253.242 286.111 252.118 C 287.235 250.993 287.868 249.466 287.868 247.875 L 287.868 238.5 C 287.851 225.499 283.045 212.949 274.375 203.261 C 265.705 193.573 253.763 187.41 240.843 185.956 C 238.112 134.433 197.243 93.393 147.39 93.393 C 95.948 93.393 54.07 137.093 53.79 190.914 C 53.78 191.053 53.769 191.192 53.769 191.333 L 53.769 466.603 L 16 466.603 C 14.409 466.603 12.882 467.236 11.757 468.36 C 10.633 469.485 10 471.012 10 472.603 C 10 474.194 10.633 475.721 11.757 476.846 C 12.882 477.97 14.409 478.603 16 478.603 L 109.75 478.603 C 111.341 478.603 112.868 477.97 113.993 476.846 C 115.117 475.721 115.75 474.194 115.75 472.603 C 115.75 471.012 115.117 469.485 113.993 468.36 C 112.868 467.236 111.341 466.603 109.75 466.603 Z M 236.088 258.568 C 234.425 258.541 232.796 258.098 231.349 257.278 C 229.902 256.459 228.683 255.289 227.805 253.877 L 244.37 253.877 C 243.492 255.289 242.274 256.459 240.827 257.278 C 239.38 258.098 237.751 258.541 236.088 258.568 Z M 275.867 238.5 L 275.867 241.875 L 194.117 241.875 L 194.117 238.5 C 194.117 227.663 198.426 217.26 206.089 209.597 C 213.752 201.934 224.155 197.625 234.992 197.625 C 245.829 197.625 256.232 201.934 263.895 209.597 C 271.558 217.26 275.867 227.663 275.867 238.5 Z"
        fill="#000000"/>
    <path
        id="path_2"
        d="M 473.663 373.9 L 473.663 334.2 C 473.603 327.507 470.888 321.104 466.119 316.408 C 461.35 311.712 454.905 309.096 448.212 309.14 L 338.418 309.14 C 335.075 309.123 331.762 309.771 328.672 311.046 C 325.582 312.322 322.776 314.199 320.418 316.568 C 319.924 317.068 319.459 317.582 319.012 318.112 C 316.607 315.293 313.618 313.031 310.252 311.481 C 306.886 309.932 303.223 309.133 299.518 309.14 L 189.1 309.14 C 182.407 309.096 175.962 311.711 171.193 316.408 C 166.423 321.104 163.708 327.507 163.648 334.2 L 163.648 374.014 C 156.468 374.649 149.777 377.938 144.887 383.234 C 139.998 388.531 137.254 395.463 137.194 402.671 L 137.194 472.608 C 137.194 474.199 137.827 475.726 138.951 476.851 C 140.076 477.975 141.603 478.608 143.194 478.608 L 189.713 478.608 C 191.304 478.608 192.831 477.975 193.956 476.851 C 195.08 475.726 195.713 474.199 195.713 472.608 L 195.713 464.615 L 443.482 464.691 L 443.482 472.608 C 443.482 474.199 444.115 475.726 445.239 476.851 C 446.364 477.975 447.891 478.608 449.482 478.608 L 496 478.608 C 497.591 478.608 499.118 477.975 500.243 476.851 C 501.367 475.726 502 474.199 502 472.608 L 502 402.668 C 501.932 395.136 498.936 387.919 493.65 382.552 C 488.365 377.186 481.193 374.082 473.663 373.9 Z M 328.918 325.034 C 330.164 323.787 331.646 322.8 333.276 322.13 C 334.907 321.461 336.655 321.122 338.418 321.134 L 448.212 321.134 C 451.725 321.087 455.117 322.436 457.637 324.884 C 460.158 327.331 461.606 330.681 461.663 334.194 L 461.663 376.023 C 456.323 378.146 451.739 381.818 448.5 386.565 C 445.26 391.311 443.513 396.919 443.482 402.665 L 443.482 405.015 L 325 404.985 L 325.015 334.798 C 324.986 332.993 325.316 331.2 325.986 329.524 C 326.656 327.848 327.653 326.321 328.918 325.034 Z M 189.1 321.134 L 299.516 321.134 C 303.03 321.087 306.422 322.437 308.943 324.886 C 311.464 327.334 312.912 330.686 312.967 334.2 L 312.994 404.982 L 195.713 404.95 L 195.713 402.669 C 195.676 396.582 193.714 390.659 190.112 385.752 C 186.509 380.845 181.445 377.201 175.648 375.342 L 175.648 334.2 C 175.704 330.687 177.153 327.335 179.673 324.888 C 182.194 322.44 185.587 321.09 189.1 321.137 Z M 183.713 466.602 L 149.194 466.602 L 149.194 402.668 C 149.317 398.174 151.191 393.901 154.413 390.766 C 157.635 387.632 161.958 385.876 166.453 385.876 C 170.949 385.876 175.272 387.632 178.494 390.766 C 181.716 393.901 183.59 398.174 183.713 402.668 Z M 195.713 452.609 L 195.713 416.949 L 318.991 416.983 L 319 416.983 L 443.481 417.018 L 443.481 452.688 Z M 490 466.605 L 455.482 466.605 L 455.482 402.668 C 455.601 398.171 457.472 393.894 460.695 390.755 C 463.917 387.616 468.242 385.858 472.741 385.858 C 477.24 385.858 481.565 387.616 484.787 390.755 C 488.01 393.894 489.881 398.171 490 402.668 Z"
        fill="#000000"/>
</svg>
