<svg
    xmlns="http://www.w3.org/2000/svg"
    viewBox="0 0 512 512"
    id="vector">
    <path
        id="path"
        d="M 467.5 218.79 C 473.023 218.79 477.5 214.313 477.5 208.79 C 477.5 203.267 473.023 198.79 467.5 198.79 L 429.618 198.79 L 429.618 171.565 L 467.5 171.565 C 473.023 171.565 477.5 167.088 477.5 161.565 C 477.5 156.042 473.023 151.565 467.5 151.565 L 429.618 151.565 L 429.618 135.204 C 429.618 132.553 428.566 130.011 426.692 128.136 L 397.775 99.195 C 395.9 97.318 393.355 96.263 390.701 96.263 L 374.336 96.263 L 374.336 58.415 C 374.336 52.892 369.859 48.415 364.336 48.415 C 358.813 48.415 354.336 52.892 354.336 58.415 L 354.336 96.263 L 327.106 96.263 L 327.106 58.415 C 327.106 52.892 322.629 48.415 317.106 48.415 C 311.583 48.415 307.106 52.892 307.106 58.415 L 307.106 96.263 L 279.904 96.263 L 279.904 60.427 C 279.904 27.107 252.794 0 219.47 0 C 192.206 0 168.511 18.428 161.284 44.029 C 140.502 46.141 121.247 55.329 106.388 70.372 C 89.608 87.362 80.367 109.873 80.367 133.758 C 80.367 145.611 82.707 157.351 87.194 168.234 C 73.157 175.693 61.113 186.42 51.983 199.677 C 40.546 216.285 34.5 235.756 34.5 255.986 C 34.5 293.227 54.862 326.63 87.189 343.766 C 82.707 354.629 80.369 366.359 80.369 378.214 C 80.369 402.099 89.61 424.61 106.39 441.6 C 121.248 456.643 140.503 465.831 161.285 467.943 C 168.511 493.561 192.208 512 219.472 512 C 252.795 512 279.906 484.893 279.906 451.573 L 279.906 415.709 L 307.108 415.709 L 307.108 453.585 C 307.108 459.108 311.585 463.585 317.108 463.585 C 322.631 463.585 327.108 459.108 327.108 453.585 L 327.108 415.709 L 354.338 415.709 L 354.338 453.585 C 354.338 459.108 358.815 463.585 364.338 463.585 C 369.861 463.585 374.338 459.108 374.338 453.585 L 374.338 415.709 L 390.703 415.709 C 393.355 415.709 395.898 414.656 397.774 412.78 L 426.691 383.867 C 428.566 381.992 429.62 379.448 429.62 376.796 L 429.62 360.406 L 467.5 360.406 C 473.023 360.406 477.5 355.929 477.5 350.406 C 477.5 344.883 473.023 340.406 467.5 340.406 L 429.618 340.406 L 429.618 313.21 L 467.5 313.21 C 473.023 313.21 477.5 308.733 477.5 303.21 C 477.5 297.687 473.023 293.21 467.5 293.21 L 429.618 293.21 L 429.618 265.986 L 467.5 265.986 C 473.023 265.986 477.5 261.509 477.5 255.986 C 477.5 250.463 473.023 245.986 467.5 245.986 L 429.618 245.986 L 429.618 218.79 Z M 219.472 492 C 202.883 492 188.278 481.799 182.129 467.068 C 189.423 465.762 196.535 463.543 203.374 460.405 C 213.313 455.842 222.202 449.597 229.793 441.843 C 233.656 437.896 233.589 431.565 229.643 427.701 C 225.696 423.838 219.366 423.905 215.501 427.851 C 209.626 433.851 202.739 438.688 195.032 442.226 C 186.888 445.962 178.256 448.033 169.373 448.393 C 131.301 447.765 100.369 416.337 100.369 378.211 C 100.369 366.164 103.464 354.294 109.319 343.882 C 110.731 341.373 110.992 338.377 110.036 335.662 C 109.081 332.946 107.001 330.774 104.33 329.701 C 74.06 317.544 54.5 288.608 54.5 255.986 C 54.5 223.355 74.057 194.431 104.324 182.3 C 110.27 179.085 111.937 174.359 109.325 168.125 C 103.466 157.683 100.369 145.799 100.369 133.759 C 100.369 95.633 131.301 64.205 169.373 63.577 C 178.2 63.936 186.839 66.009 195.03 69.743 C 202.751 73.287 209.633 78.128 215.486 84.132 C 217.446 86.142 220.046 87.152 222.648 87.152 C 225.164 87.152 227.683 86.208 229.627 84.313 C 233.582 80.458 233.662 74.126 229.807 70.172 C 222.231 62.401 213.337 56.141 203.349 51.556 C 196.489 48.429 189.387 46.215 182.128 44.91 C 188.277 30.191 202.882 20 219.472 20 C 241.767 20 259.906 38.136 259.906 60.427 L 259.906 183.03 L 228.774 183.03 L 202.243 156.502 C 205.067 151.347 206.573 145.539 206.573 139.498 C 206.573 130.022 202.883 121.113 196.18 114.412 C 182.348 100.582 159.84 100.581 146.007 114.412 C 139.306 121.113 135.615 130.022 135.615 139.497 C 135.615 148.972 139.305 157.881 146.007 164.582 C 152.923 171.497 162.008 174.955 171.093 174.955 C 176.953 174.955 182.809 173.507 188.088 170.63 L 217.56 200.099 C 219.693 202.008 222.05 202.985 224.631 203.028 L 259.905 203.028 L 259.905 245.984 L 197.238 245.984 C 192.906 231.29 179.29 220.529 163.199 220.529 C 143.647 220.529 127.741 236.434 127.741 255.984 C 127.741 275.549 143.647 291.467 163.199 291.467 C 179.293 291.467 192.911 280.694 197.24 265.984 L 259.905 265.984 L 259.905 308.94 L 224.631 308.94 C 224.363 308.94 224.133 308.954 223.921 308.974 C 221.603 309.138 219.33 310.098 217.557 311.871 L 188.084 341.364 C 174.624 334.029 157.382 336.04 146.006 347.414 C 139.298 354.122 135.608 363.038 135.614 372.521 C 135.62 381.99 139.315 390.885 146.006 397.557 C 152.924 404.474 162.01 407.931 171.096 407.931 C 180.178 407.931 189.26 404.475 196.169 397.567 C 202.87 390.885 206.565 381.991 206.571 372.522 C 206.575 366.472 205.068 360.656 202.239 355.494 L 228.774 328.941 L 259.903 328.941 L 259.903 451.572 C 259.905 473.864 241.767 492 219.472 492 Z M 186.573 139.499 C 186.573 143.632 184.963 147.518 182.04 150.441 C 176.004 156.476 166.185 156.476 160.149 150.441 C 157.226 147.518 155.616 143.632 155.616 139.499 C 155.616 135.366 157.226 131.479 160.149 128.557 C 166.185 122.523 176.005 122.523 182.04 128.557 C 184.963 131.479 186.573 135.365 186.573 139.499 Z M 178.685 255.986 C 178.685 264.523 171.738 271.469 163.199 271.469 C 154.676 271.469 147.741 264.523 147.741 255.986 C 147.741 247.465 154.676 240.531 163.199 240.531 C 171.738 240.531 178.685 247.464 178.685 255.986 Z M 186.573 372.509 C 186.57 376.63 184.964 380.5 182.04 383.415 C 176.004 389.449 166.184 389.45 160.139 383.405 C 157.225 380.5 155.618 376.63 155.616 372.509 C 155.613 368.374 157.223 364.485 160.149 361.559 C 166.184 355.526 176.004 355.525 182.038 361.558 C 182.039 361.559 182.04 361.56 182.041 361.562 C 182.041 361.562 182.042 361.563 182.042 361.563 C 184.967 364.489 186.576 368.376 186.573 372.509 Z M 409.618 372.653 L 386.56 395.709 L 279.905 395.709 L 279.905 366.075 L 369.978 366.075 C 375.501 366.075 379.978 361.598 379.978 356.075 L 379.978 300.857 C 379.978 295.334 375.501 290.857 369.978 290.857 C 364.455 290.857 359.978 295.334 359.978 300.857 L 359.978 346.075 L 279.905 346.075 L 279.905 165.925 L 359.978 165.925 L 359.978 211.029 C 359.978 216.552 364.455 221.029 369.978 221.029 C 375.501 221.029 379.978 216.552 379.978 211.029 L 379.978 155.925 C 379.978 150.402 375.501 145.925 369.978 145.925 L 279.905 145.925 L 279.905 116.263 L 386.557 116.263 L 409.618 139.344 Z"
        fill="#000000"/>
    <path
        id="path_1"
        d="M 369.979 245.958 C 364.456 245.958 359.979 250.435 359.979 255.958 L 359.979 255.986 C 359.979 261.509 364.456 265.972 369.979 265.972 C 375.502 265.972 379.979 261.481 379.979 255.958 C 379.979 250.435 375.501 245.958 369.979 245.958 Z"
        fill="#000000"/>
</svg>
