<svg
    xmlns="http://www.w3.org/2000/svg"
    viewBox="0 0 512 512"
    id="vector">
    <path
        id="path"
        d="M 390.176 491.3 L 406.458 491.3 C 408.235 491.301 409.963 490.709 411.366 489.619 C 412.769 488.529 413.77 487.001 414.208 485.279 L 422.864 451.347 C 428.508 449.954 433.527 446.709 437.114 442.135 C 440.702 437.56 442.656 431.913 442.664 426.099 L 442.664 46.7 C 442.656 39.809 439.913 33.196 435.04 28.324 C 430.168 23.451 423.555 20.708 416.664 20.7 L 95.333 20.7 C 88.442 20.708 81.829 23.451 76.957 28.324 C 72.084 33.196 69.341 39.809 69.333 46.7 L 69.333 426.1 C 69.341 431.914 71.295 437.561 74.883 442.136 C 78.47 446.71 83.489 449.955 89.133 451.348 L 97.789 485.277 C 98.228 486.999 99.229 488.527 100.632 489.618 C 102.036 490.709 103.764 491.301 105.541 491.301 L 121.821 491.301 C 123.598 491.301 125.326 490.709 126.729 489.618 C 128.133 488.528 129.134 487 129.573 485.278 L 138.036 452.1 L 373.961 452.1 L 382.425 485.279 C 382.864 487.001 383.864 488.529 385.268 489.619 C 386.671 490.709 388.399 491.301 390.176 491.3 Z M 81.333 284.989 L 430.667 284.989 L 430.667 356.543 L 81.333 356.543 Z M 430.667 46.7 L 430.667 272.989 L 262 272.989 L 262 32.7 L 416.667 32.7 C 420.377 32.704 423.938 34.181 426.562 36.805 C 429.186 39.429 430.663 42.99 430.667 46.7 Z M 95.333 32.7 L 250 32.7 L 250 272.989 L 81.333 272.989 L 81.333 46.7 C 81.337 42.99 82.814 39.429 85.438 36.805 C 88.062 34.181 91.623 32.704 95.333 32.7 Z M 81.333 426.1 L 81.333 368.543 L 430.667 368.543 L 430.667 426.1 C 430.663 429.81 429.186 433.371 426.562 435.995 C 423.938 438.619 420.377 440.096 416.667 440.1 L 95.333 440.1 C 91.623 440.096 88.062 438.619 85.438 435.995 C 82.814 433.371 81.337 429.81 81.333 426.1 Z M 118.716 479.3 L 108.651 479.3 L 101.713 452.1 L 125.655 452.1 Z M 410.288 452.1 L 403.349 479.3 L 393.284 479.3 L 386.345 452.1 Z"
        fill="#000000"/>
    <path
        id="path_1"
        d="M 269.518 316.092 L 242.482 316.092 C 240.891 316.092 239.364 316.725 238.239 317.849 C 237.115 318.974 236.482 320.501 236.482 322.092 C 236.482 323.683 237.115 325.21 238.239 326.335 C 239.364 327.459 240.891 328.092 242.482 328.092 L 269.518 328.092 C 271.109 328.092 272.636 327.459 273.761 326.335 C 274.885 325.21 275.518 323.683 275.518 322.092 C 275.518 320.501 274.885 318.974 273.761 317.849 C 272.636 316.725 271.109 316.092 269.518 316.092 Z"
        fill="#000000"/>
    <path
        id="path_2"
        d="M 242.482 410.092 L 269.518 410.092 C 271.109 410.092 272.636 409.459 273.761 408.335 C 274.885 407.21 275.518 405.683 275.518 404.092 C 275.518 402.501 274.885 400.974 273.761 399.849 C 272.636 398.725 271.109 398.092 269.518 398.092 L 242.482 398.092 C 240.891 398.092 239.364 398.725 238.239 399.849 C 237.115 400.974 236.482 402.501 236.482 404.092 C 236.482 405.683 237.115 407.21 238.239 408.335 C 239.364 409.459 240.891 410.092 242.482 410.092 Z"
        fill="#000000"/>
    <path
        id="path_3"
        d="M 225.074 207.248 C 226.665 207.248 228.192 206.615 229.317 205.491 C 230.441 204.366 231.074 202.839 231.074 201.248 L 231.074 115.368 C 231.074 113.777 230.441 112.25 229.317 111.125 C 228.192 110.001 226.665 109.368 225.074 109.368 C 223.483 109.368 221.956 110.001 220.831 111.125 C 219.707 112.25 219.074 113.777 219.074 115.368 L 219.074 201.248 C 219.074 202.839 219.707 204.366 220.831 205.491 C 221.956 206.615 223.483 207.248 225.074 207.248 Z"
        fill="#000000"/>
    <path
        id="path_4"
        d="M 287.927 207.248 C 289.518 207.248 291.045 206.615 292.17 205.491 C 293.294 204.366 293.927 202.839 293.927 201.248 L 293.927 115.368 C 293.927 113.777 293.294 112.25 292.17 111.125 C 291.045 110.001 289.518 109.368 287.927 109.368 C 286.336 109.368 284.809 110.001 283.684 111.125 C 282.56 112.25 281.927 113.777 281.927 115.368 L 281.927 201.248 C 281.927 202.839 282.56 204.366 283.684 205.491 C 284.809 206.615 286.336 207.248 287.927 207.248 Z"
        fill="#000000"/>
</svg>
